<svg width="184" height="61" viewBox="0 0 184 61" fill="none" xmlns="http://www.w3.org/2000/svg">
<rect x="19" y="3" width="16" height="47" rx="8" fill="#D9EBFC"/>
<rect x="57" y="15" width="16" height="37" rx="8" fill="#D9EBFC"/>
<rect y="20" width="16" height="30" rx="8" fill="#D9EBFC"/>
<rect x="38" y="4" width="16" height="47" rx="8" fill="url(#paint0_linear_16_53)"/>
<rect x="19" y="20" width="16" height="31" rx="8" fill="url(#paint1_linear_16_53)"/>
<rect y="40" width="9" height="11" fill="#0393F3"/>
<rect x="57" y="42" width="9" height="9" fill="#0393F3"/>
<rect x="57" y="36" width="16" height="15" rx="7.5" fill="url(#paint2_linear_16_53)"/>
<rect y="29" width="16" height="22" rx="8" fill="url(#paint3_linear_16_53)"/>
<path d="M98.2891 17.3125C95.6797 17.3125 93.4297 17.9453 91.5391 19.2109C89.6641 20.4766 88.2656 22.1797 87.3438 24.3203C86.4219 26.4609 85.9609 28.9219 85.9609 31.7031C85.9609 33.7812 86.2109 35.6797 86.7109 37.3984C87.2109 39.1016 87.9609 40.6016 88.9609 41.8984C89.9609 43.1797 91.2578 44.1797 92.8516 44.8984C94.4609 45.6016 96.3047 45.9531 98.3828 45.9531C101.055 45.9531 103.82 45.2578 106.68 43.8672L107.359 47.3125C105.031 48.7812 101.883 49.5156 97.9141 49.5156C95.3047 49.5156 92.9609 49.0859 90.8828 48.2266C88.8203 47.3516 87.1094 46.125 85.75 44.5469C84.4062 42.9531 83.3828 41.0625 82.6797 38.875C81.9766 36.6719 81.625 34.2266 81.625 31.5391C81.625 28.9453 82.0078 26.5547 82.7734 24.3672C83.5391 22.1797 84.6172 20.3047 86.0078 18.7422C87.4141 17.1641 89.1641 15.9375 91.2578 15.0625C93.3516 14.1875 95.6797 13.75 98.2422 13.75C102.133 13.75 105.414 14.6094 108.086 16.3281L106.492 19.6328C103.93 18.0859 101.195 17.3125 98.2891 17.3125ZM116.828 17.5703V29.2891C117.469 29.2891 118.789 29.3047 120.789 29.3359C122.805 29.3672 124.359 29.3828 125.453 29.3828C128.438 29.3828 130.516 28.8906 131.688 27.9062C132.859 26.9062 133.445 25.3281 133.445 23.1719C133.445 21.2812 132.883 19.875 131.758 18.9531C130.633 18.0312 128.75 17.5703 126.109 17.5703H116.828ZM139.047 49H134.359L129.578 38.125C128.281 35.2031 127.453 33.4453 127.094 32.8516C125.953 32.9297 124.602 32.9688 123.039 32.9688L116.828 32.7812V49H112.68V13.9375H123.766C125.047 13.9375 126.18 13.9687 127.164 14.0312C128.148 14.0938 129.125 14.2109 130.094 14.3828C131.078 14.5391 131.93 14.7656 132.648 15.0625C133.367 15.3438 134.039 15.7188 134.664 16.1875C135.289 16.6406 135.789 17.1875 136.164 17.8281C136.555 18.4688 136.859 19.2344 137.078 20.125C137.297 21 137.406 21.9922 137.406 23.1016C137.406 25.2891 136.828 27.1719 135.672 28.75C134.531 30.3281 132.906 31.4219 130.797 32.0312C130.797 32.0625 130.953 32.3438 131.266 32.875C131.578 33.4062 131.945 34.0625 132.367 34.8438C132.805 35.6094 133.141 36.25 133.375 36.7656L139.047 49ZM159.906 46.8672L149.266 22.1172L148.375 19.75L148.539 28.2344V49H144.742V14.3359H149.992L162.062 41.9453L174.016 14.3359H179.125V49H175.188V28.1406L175.352 19.8438L174.484 22.2109L163.867 46.8672H159.906Z" fill="url(#paint4_linear_16_53)"/>
<defs>
<linearGradient id="paint0_linear_16_53" x1="46" y1="4" x2="46" y2="51" gradientUnits="userSpaceOnUse">
<stop offset="0.03125" stop-color="#09B3F9"/>
<stop offset="1" stop-color="#028CF1"/>
</linearGradient>
<linearGradient id="paint1_linear_16_53" x1="27" y1="20" x2="27" y2="51" gradientUnits="userSpaceOnUse">
<stop offset="0.03125" stop-color="#09B3F9"/>
<stop offset="1" stop-color="#028CF1"/>
</linearGradient>
<linearGradient id="paint2_linear_16_53" x1="65" y1="36" x2="65" y2="51" gradientUnits="userSpaceOnUse">
<stop offset="0.03125" stop-color="#09B3F9"/>
<stop offset="1" stop-color="#028CF1"/>
</linearGradient>
<linearGradient id="paint3_linear_16_53" x1="8" y1="29" x2="8" y2="51" gradientUnits="userSpaceOnUse">
<stop offset="0.03125" stop-color="#09B3F9"/>
<stop offset="1" stop-color="#028CF1"/>
</linearGradient>
<linearGradient id="paint4_linear_16_53" x1="131.5" y1="0" x2="131.5" y2="61" gradientUnits="userSpaceOnUse">
<stop stop-color="#08AFF8"/>
<stop offset="0.822917" stop-color="#0391F2"/>
</linearGradient>
</defs>
</svg>
